<svg xmlns="http://www.w3.org/2000/svg" viewBox="0 0 512 512">
  <defs>
    <linearGradient id="bg" x1="0%" y1="0%" x2="100%" y2="100%">
      <stop offset="0%" style="stop-color:#6366f1"/>
      <stop offset="100%" style="stop-color:#8b5cf6"/>
    </linearGradient>
  </defs>
  <!-- Rounded square background -->
  <rect width="512" height="512" rx="96" fill="url(#bg)"/>
  <!-- Ship/document icon - stylized paper boat with lines -->
  <g transform="translate(256,240)" fill="none" stroke="white" stroke-width="28" stroke-linecap="round" stroke-linejoin="round">
    <!-- Boat hull -->
    <path d="M-120,60 Q-100,120 0,120 Q100,120 120,60" fill="white" fill-opacity="0.2"/>
    <path d="M-120,60 Q-100,120 0,120 Q100,120 120,60"/>
    <!-- Mast -->
    <line x1="0" y1="60" x2="0" y2="-100"/>
    <!-- Sail -->
    <path d="M0,-100 L80,20 L0,20 Z" fill="white" fill-opacity="0.3"/>
    <path d="M0,-100 L80,20 L0,20"/>
    <!-- Changelog lines on sail -->
    <line x1="15" y1="-40" x2="55" y2="-40" stroke-width="12" opacity="0.7"/>
    <line x1="15" y1="-10" x2="45" y2="-10" stroke-width="12" opacity="0.7"/>
  </g>
  <!-- Water waves -->
  <g transform="translate(256,340)" fill="none" stroke="white" stroke-width="16" stroke-linecap="round" opacity="0.5">
    <path d="M-140,0 Q-100,-20 -60,0 Q-20,20 20,0 Q60,-20 100,0 Q140,20 160,0"/>
    <path d="M-160,35 Q-120,15 -80,35 Q-40,55 0,35 Q40,15 80,35 Q120,55 140,35"/>
  </g>
</svg>
